<svg width="2700" height="3250" viewBox="0 0 2700 3250" fill="none" xmlns="http://www.w3.org/2000/svg">
<circle cx="1350" cy="1350" r="1350" fill="url(#paint0_linear_605_960)"/>
<path fill-rule="evenodd" clip-rule="evenodd" d="M1314.53 1904.33C1354.58 1849.73 1368.28 1769.72 1324.02 1708.06C1274.5 1639.06 1112.98 1601.46 994.587 1573.89C960.659 1565.99 930.271 1558.91 907.075 1552.16C776.432 1514.13 664.1 1477.78 575.518 1396.23C368.11 1205.3 409.543 885.291 625.269 743.109C780.698 640.652 955.013 642.519 1134.03 646.23H1689.72L2028.15 648.42L2224.66 646.083C2274.78 645.487 2315.73 685.953 2315.73 736.077V826.422C2315.73 876.334 2275.11 916.713 2225.2 916.421L2185.22 916.186C2183.53 916.432 2181.93 916.574 2180.42 916.614C2165.03 917.013 2149.2 916.959 2101.48 916.797C2052.39 916.63 1969.55 916.347 1818.72 916.326C1636.02 916.065 1532.57 916.209 1452.8 916.319C1365.94 916.44 1307.16 916.521 1204.73 916C1188.79 915.989 1171.46 915.84 1153.25 915.682C1048.1 914.776 913.493 913.615 848.654 937.367C729.613 985.188 712.571 1096.36 796.449 1163.4C852.024 1207.82 998.419 1246.45 1078.59 1265.19C1403.77 1341.21 1685.4 1435.11 1670.37 1822.11C1652.05 2293.78 1005.07 2375.86 673.57 2211.34C483.919 2117.21 419.674 1950.67 384.736 1758.18C378.224 1703 414.438 1660.93 511.967 1638.84C628.885 1615.4 668.224 1652 689.493 1704.41C770.669 1904.44 859.617 2025.93 1077.83 2013.57C1184.79 2007.51 1262.85 1974.77 1314.53 1904.33Z" fill="white"/>
<path d="M1723.22 1185C1723.22 1143.58 1756.8 1110 1798.22 1110H1944.22C1985.65 1110 2019.22 1143.58 2019.22 1185V1299C2019.22 1340.42 1985.65 1374 1944.22 1374H1798.22C1756.8 1374 1723.22 1340.42 1723.22 1299V1185Z" fill="white"/>
<path d="M760.6 3144C717.667 3144 686.067 3131.6 665.8 3106.8C661.533 3101.2 659.4 3096.13 659.4 3091.6C659.4 3085.2 662.733 3079.6 669.4 3074.8C673.933 3071.87 678.333 3070.4 682.6 3070.4C688.467 3070.4 693.933 3072.93 699 3078C708.067 3087.07 716.867 3093.6 725.4 3097.6C734.2 3101.33 745 3103.2 757.8 3103.2C768.733 3103.2 777.933 3101.73 785.4 3098.8C792.867 3095.87 796.6 3092.27 796.6 3088C796.6 3082.67 793.533 3078.13 787.4 3074.4C781.267 3070.67 768.867 3065.87 750.2 3060C720.867 3050.93 700.067 3041.47 687.8 3031.6C675.533 3021.47 669.4 3008.93 669.4 2994C669.4 2977.2 676.6 2964 691 2954.4C705.4 2944.8 725.267 2940 750.6 2940C770.067 2940 787.667 2942.93 803.4 2948.8C819.133 2954.67 830.6 2962.53 837.8 2972.4C841.267 2976.93 843 2981.47 843 2986C843 2992.4 839.8 2997.6 833.4 3001.6C828.867 3004.53 824.2 3006 819.4 3006C811.667 3006 804.6 3002.8 798.2 2996.4C792.867 2991.33 785.933 2987.47 777.4 2984.8C769.133 2982.13 760.067 2980.8 750.2 2980.8C731.533 2980.8 722.2 2985.2 722.2 2994C722.2 2997.47 723.667 3000.53 726.6 3003.2C729.533 3005.87 734.733 3008.67 742.2 3011.6C749.933 3014.53 761.933 3018.53 778.2 3023.6C804.333 3031.6 822.6 3040.4 833 3050C843.667 3059.6 849 3072.27 849 3088C849 3104.8 841.267 3118.4 825.8 3128.8C810.333 3138.93 788.6 3144 760.6 3144ZM914.559 2915.2C904.693 2915.2 896.693 2912.53 890.559 2907.2C884.693 2901.6 881.759 2894.4 881.759 2885.6C881.759 2876.8 884.693 2869.73 890.559 2864.4C896.693 2858.8 904.693 2856 914.559 2856C924.426 2856 932.426 2858.8 938.559 2864.4C944.959 2869.73 948.159 2876.8 948.159 2885.6C948.159 2894.4 944.959 2901.6 938.559 2907.2C932.426 2912.53 924.426 2915.2 914.559 2915.2ZM914.959 3144C906.693 3144 900.293 3141.87 895.759 3137.6C891.226 3133.33 888.959 3127.47 888.959 3120V2964C888.959 2956.53 891.226 2950.67 895.759 2946.4C900.293 2942.13 906.693 2940 914.959 2940C922.959 2940 929.359 2942.13 934.159 2946.4C938.959 2950.67 941.359 2956.53 941.359 2964V3120C941.359 3127.47 938.959 3133.33 934.159 3137.6C929.359 3141.87 922.959 3144 914.959 3144ZM1100.08 3240C1079.28 3240 1060.08 3236.93 1042.48 3230.8C1025.15 3224.67 1011.55 3216.27 1001.68 3205.6C997.951 3201.6 996.084 3197.07 996.084 3192C996.084 3185.33 999.284 3179.33 1005.68 3174C1009.68 3170.8 1013.95 3169.2 1018.48 3169.2C1025.42 3169.2 1033.15 3173.07 1041.68 3180.8C1048.08 3186.67 1056.08 3191.2 1065.68 3194.4C1075.55 3197.87 1086.08 3199.6 1097.28 3199.6C1118.08 3199.6 1134.22 3193.33 1145.68 3180.8C1157.15 3168.27 1162.62 3150.93 1162.08 3128.8L1161.68 3112.8C1152.62 3123.47 1141.95 3131.33 1129.68 3136.4C1117.68 3141.47 1102.88 3144 1085.28 3144C1052.48 3144 1026.88 3135.07 1008.48 3117.2C990.084 3099.07 980.884 3074 980.884 3042C980.884 3010 990.218 2985.07 1008.88 2967.2C1027.82 2949.07 1054.08 2940 1087.68 2940C1101.55 2940 1114.88 2942.8 1127.68 2948.4C1140.48 2954 1151.95 2961.87 1162.08 2972V2964C1162.08 2956.53 1164.48 2950.67 1169.28 2946.4C1174.08 2942.13 1180.48 2940 1188.48 2940C1196.48 2940 1202.75 2942.13 1207.28 2946.4C1212.08 2950.4 1214.48 2956.27 1214.48 2964V3128.8C1214.48 3150.13 1209.82 3169.2 1200.48 3186C1191.42 3202.8 1178.22 3216 1160.88 3225.6C1143.82 3235.2 1123.55 3240 1100.08 3240ZM1095.68 3102.4C1116.48 3102.4 1132.75 3097.07 1144.48 3086.4C1156.22 3075.73 1162.08 3060.93 1162.08 3042C1162.08 3023.07 1156.22 3008.27 1144.48 2997.6C1132.75 2986.93 1116.48 2981.6 1095.68 2981.6C1076.22 2981.6 1061.02 2986.93 1050.08 2997.6C1039.15 3008.27 1033.68 3023.07 1033.68 3042C1033.68 3060.93 1039.15 3075.73 1050.08 3086.4C1061.02 3097.07 1076.22 3102.4 1095.68 3102.4ZM1277.29 3144C1269.02 3144 1262.62 3141.87 1258.09 3137.6C1253.56 3133.33 1251.29 3127.47 1251.29 3120V2964C1251.29 2956.53 1253.56 2950.67 1258.09 2946.4C1262.62 2942.13 1269.02 2940 1277.29 2940C1285.29 2940 1291.69 2942.13 1296.49 2946.4C1301.29 2950.67 1303.69 2956.53 1303.69 2964V2973.6C1309.82 2962.93 1317.56 2954.67 1326.89 2948.8C1336.22 2942.93 1346.36 2940 1357.29 2940C1368.49 2940 1378.62 2943.07 1387.69 2949.2C1396.76 2955.07 1403.56 2963.2 1408.09 2973.6C1427.02 2951.2 1448.49 2940 1472.49 2940C1493.82 2940 1510.49 2947.47 1522.49 2962.4C1534.49 2977.33 1540.49 2998.13 1540.49 3024.8V3120C1540.49 3127.47 1538.09 3133.33 1533.29 3137.6C1528.49 3141.87 1522.09 3144 1514.09 3144C1505.82 3144 1499.42 3141.87 1494.89 3137.6C1490.36 3133.33 1488.09 3127.47 1488.09 3120V3021.6C1488.09 3008.53 1485.69 2998.67 1480.89 2992C1476.36 2985.07 1469.56 2981.6 1460.49 2981.6C1452.76 2981.6 1445.96 2983.73 1440.09 2988C1434.22 2992.27 1428.76 2999.07 1423.69 3008.4V3120C1423.69 3127.47 1421.29 3133.33 1416.49 3137.6C1411.69 3141.87 1405.29 3144 1397.29 3144C1389.02 3144 1382.62 3141.87 1378.09 3137.6C1373.56 3133.33 1371.29 3127.47 1371.29 3120V3030C1371.29 2997.73 1362.09 2981.6 1343.69 2981.6C1331.16 2981.6 1321.29 2986.53 1314.09 2996.4C1307.16 3006.27 1303.69 3019.87 1303.69 3037.2V3120C1303.69 3127.47 1301.29 3133.33 1296.49 3137.6C1291.69 3141.87 1285.29 3144 1277.29 3144ZM1655.12 3144C1638.59 3144 1623.92 3141.2 1611.12 3135.6C1598.59 3130 1588.72 3122.27 1581.52 3112.4C1574.59 3102.27 1571.12 3090.67 1571.12 3077.6C1571.12 3057.87 1579.25 3042.13 1595.52 3030.4C1612.05 3018.67 1634.32 3012.8 1662.32 3012.8C1686.59 3012.8 1706.05 3018 1720.72 3028.4V3018.8C1720.72 3006.27 1716.85 2996.67 1709.12 2990C1701.39 2983.33 1690.19 2980 1675.52 2980C1653.65 2980 1634.85 2984.67 1619.12 2994C1612.45 2997.73 1606.72 2999.6 1601.92 2999.6C1596.05 2999.6 1590.85 2996.93 1586.32 2991.6C1583.39 2987.87 1581.92 2984 1581.92 2980C1581.92 2973.33 1585.39 2967.47 1592.32 2962.4C1601.92 2955.47 1614.05 2950 1628.72 2946C1643.39 2942 1658.85 2940 1675.12 2940C1706.05 2940 1730.32 2947.07 1747.92 2961.2C1765.79 2975.07 1774.72 2994.27 1774.72 3018.8V3121.6C1774.72 3128.53 1772.32 3134 1767.52 3138C1762.99 3142 1756.72 3144 1748.72 3144C1740.45 3144 1734.05 3142.13 1729.52 3138.4C1724.99 3134.67 1722.72 3129.33 1722.72 3122.4V3118C1707.52 3135.33 1684.99 3144 1655.12 3144ZM1667.52 3107.2C1684.32 3107.2 1697.39 3104.67 1706.72 3099.6C1716.32 3094.27 1721.12 3086.93 1721.12 3077.6C1721.12 3068.8 1716.32 3061.73 1706.72 3056.4C1697.12 3051.07 1684.32 3048.4 1668.32 3048.4C1653.92 3048.4 1642.72 3050.93 1634.72 3056C1626.99 3061.07 1623.12 3068.27 1623.12 3077.6C1623.12 3086.93 1626.99 3094.27 1634.72 3099.6C1642.45 3104.67 1653.39 3107.2 1667.52 3107.2ZM2007.89 2944C2015.89 2944 2022.29 2946.13 2027.09 2950.4C2031.89 2954.67 2034.29 2960.53 2034.29 2968V3120C2034.29 3127.47 2031.89 3133.33 2027.09 3137.6C2022.29 3141.87 2015.89 3144 2007.89 3144C1999.63 3144 1993.23 3141.87 1988.69 3137.6C1984.16 3133.33 1981.89 3127.47 1981.89 3120V2984.4H1889.09V3120C1889.09 3127.47 1886.83 3133.33 1882.29 3137.6C1877.76 3141.87 1871.36 3144 1863.09 3144C1855.09 3144 1848.69 3141.87 1843.89 3137.6C1839.09 3133.33 1836.69 3127.47 1836.69 3120V2984.4H1829.49C1820.96 2984.4 1814.16 2982.53 1809.09 2978.8C1804.03 2975.07 1801.49 2970.27 1801.49 2964.4C1801.49 2958.27 1804.03 2953.33 1809.09 2949.6C1814.16 2945.87 1820.96 2944 1829.49 2944H1836.69V2928.4C1836.69 2902.53 1845.09 2882.13 1861.89 2867.2C1878.96 2852 1902.03 2844.4 1931.09 2844.4C1947.89 2844.4 1964.29 2847.47 1980.29 2853.6C1996.29 2859.73 2009.23 2868 2019.09 2878.4C2022.03 2881.87 2023.49 2886 2023.49 2890.8C2023.49 2897.47 2021.09 2903.07 2016.29 2907.6C2012.56 2911.33 2007.63 2913.2 2001.49 2913.2C1994.83 2913.2 1988.83 2910.93 1983.49 2906.4C1975.76 2900 1967.23 2895.07 1957.89 2891.6C1948.83 2887.87 1939.89 2886 1931.09 2886C1903.09 2886 1889.09 2899.6 1889.09 2926.8V2944H2007.89Z" fill="url(#paint1_linear_605_960)"/>
<defs>
<linearGradient id="paint0_linear_605_960" x1="-2.87666e-05" y1="1349.54" x2="2700" y2="1279" gradientUnits="userSpaceOnUse">
<stop stop-color="#E879F9"/>
<stop offset="1" stop-color="#60A5FA"/>
</linearGradient>
<linearGradient id="paint1_linear_605_960" x1="645" y1="2989.91" x2="2048.92" y2="2890.46" gradientUnits="userSpaceOnUse">
<stop stop-color="#E879F9"/>
<stop offset="1" stop-color="#60A5FA"/>
</linearGradient>
</defs>
</svg>
