<svg width="2700" height="2700" viewBox="0 0 2700 2700" fill="none" xmlns="http://www.w3.org/2000/svg">
<circle cx="1350" cy="1350" r="1350" fill="url(#paint0_linear_606_978)"/>
<path fill-rule="evenodd" clip-rule="evenodd" d="M1314.53 1904.33C1354.58 1849.73 1368.28 1769.72 1324.02 1708.06C1274.5 1639.06 1112.98 1601.46 994.587 1573.89C960.659 1565.99 930.271 1558.91 907.075 1552.16C776.432 1514.13 664.1 1477.78 575.518 1396.23C368.11 1205.3 409.543 885.291 625.269 743.109C780.698 640.652 955.013 642.519 1134.03 646.23H1689.72L2028.15 648.42L2224.66 646.083C2274.78 645.487 2315.73 685.953 2315.73 736.077V826.422C2315.73 876.334 2275.11 916.713 2225.2 916.421L2185.22 916.186C2183.53 916.432 2181.93 916.574 2180.42 916.614C2165.03 917.013 2149.2 916.959 2101.48 916.797C2052.39 916.63 1969.55 916.347 1818.72 916.326C1636.02 916.065 1532.57 916.209 1452.8 916.319C1365.94 916.44 1307.16 916.521 1204.73 916C1188.79 915.989 1171.46 915.84 1153.25 915.682C1048.1 914.776 913.493 913.615 848.654 937.367C729.613 985.188 712.571 1096.36 796.449 1163.4C852.024 1207.82 998.419 1246.45 1078.59 1265.19C1403.77 1341.21 1685.4 1435.11 1670.37 1822.11C1652.05 2293.78 1005.07 2375.86 673.57 2211.34C483.919 2117.21 419.674 1950.67 384.736 1758.18C378.224 1703 414.438 1660.93 511.967 1638.84C628.885 1615.4 668.224 1652 689.493 1704.41C770.669 1904.44 859.617 2025.93 1077.83 2013.57C1184.79 2007.51 1262.85 1974.77 1314.53 1904.33Z" fill="white"/>
<path d="M1723.23 1185C1723.23 1143.58 1756.8 1110 1798.23 1110H1944.23C1985.65 1110 2019.23 1143.58 2019.23 1185V1299C2019.23 1340.42 1985.65 1374 1944.23 1374H1798.23C1756.8 1374 1723.23 1340.42 1723.23 1299V1185Z" fill="white"/>
<defs>
<linearGradient id="paint0_linear_606_978" x1="-2.87666e-05" y1="1349.54" x2="2700" y2="1279" gradientUnits="userSpaceOnUse">
<stop stop-color="#E879F9"/>
<stop offset="1" stop-color="#60A5FA"/>
</linearGradient>
</defs>
</svg>
