<svg width="1932" height="1644" viewBox="0 0 1932 1644" fill="none" xmlns="http://www.w3.org/2000/svg">
<path fill-rule="evenodd" clip-rule="evenodd" d="M930.533 1259.33C970.579 1204.73 984.283 1124.72 940.025 1063.06C890.496 994.064 728.982 956.456 610.587 928.888C576.659 920.988 546.271 913.912 523.075 907.159C392.432 869.128 280.1 832.783 191.518 751.229C-15.89 560.298 25.5426 240.291 241.269 98.1087C396.698 -4.34772 571.013 -2.48141 750.032 1.22993H1305.72L1644.15 3.42013L1840.66 1.0831C1890.78 0.487014 1931.73 40.9526 1931.73 91.0767V181.422C1931.73 231.334 1891.11 271.713 1841.2 271.421L1801.22 271.186C1799.53 271.432 1797.93 271.574 1796.42 271.614C1781.03 272.013 1765.2 271.959 1717.48 271.797C1668.39 271.63 1585.55 271.347 1434.72 271.326C1252.02 271.065 1148.57 271.209 1068.8 271.319C981.936 271.44 923.16 271.521 820.725 271C804.794 270.989 787.464 270.84 769.249 270.682C664.101 269.776 529.493 268.615 464.654 292.367C345.613 340.188 328.571 451.358 412.449 518.396C468.024 562.815 614.419 601.453 694.586 620.191C1019.77 696.21 1301.4 790.113 1286.37 1177.11C1268.05 1648.78 621.074 1730.86 289.57 1566.34C99.9186 1472.21 35.6741 1305.67 0.736335 1113.18C-5.7755 1058 30.4377 1015.93 127.967 993.842C244.885 970.401 284.224 1007 305.493 1059.41C386.669 1259.44 475.617 1380.93 693.829 1368.57C800.786 1362.51 878.852 1329.77 930.533 1259.33Z" fill="white"/>
<path d="M1339.23 540C1339.23 498.579 1372.8 465 1414.23 465H1560.23C1601.65 465 1635.23 498.579 1635.23 540V654C1635.23 695.421 1601.65 729 1560.23 729H1414.23C1372.8 729 1339.23 695.421 1339.23 654V540Z" fill="white"/>
</svg>
